<svg width="169" height="187" viewBox="0 0 169 187" fill="none" xmlns="http://www.w3.org/2000/svg">
<path d="M87.1406 42.0748C87.1406 40.7838 85.9584 39.7373 84.5 39.7373C83.0416 39.7373 81.8594 40.7838 81.8594 42.0748V63.1123C81.8594 64.4033 83.0416 65.4498 84.5 65.4498C85.9584 65.4498 87.1406 64.4033 87.1406 63.1123V42.0748Z" fill="black"/>
<path d="M70.6103 38.9194L57.0903 76.7168C43.7552 78.7971 36.9688 82.0696 36.9688 86.4875C36.9688 90.4846 42.25 93.5 53.3406 95.6505C55.5588 96.0713 57.9353 96.4219 60.3911 96.7491C61.0914 96.8328 61.8006 96.6668 62.3627 96.2876C62.9248 95.9085 63.2937 95.3472 63.3882 94.7272C63.4827 94.1073 63.2952 93.4795 62.8668 92.9819C62.4385 92.4844 61.8044 92.1578 61.1041 92.0741C59.8013 91.9183 58.5339 91.7313 57.3016 91.5131L75.7859 40.2985C75.9995 39.7065 75.9387 39.0636 75.6168 38.5112C75.4574 38.2377 75.2388 37.9947 74.9733 37.796C74.7078 37.5973 74.4007 37.4469 74.0695 37.3533C73.4007 37.1642 72.6744 37.218 72.0505 37.503C71.4265 37.7879 70.9559 38.2806 70.7423 38.8726L70.6103 38.9194ZM52.1259 90.5781C44.3097 88.825 42.25 86.9316 42.25 86.4875C42.25 86.0434 44.8906 83.6591 55.2683 81.8125L52.1259 90.5781Z" fill="black"/>
<path d="M95.0624 37.4002C94.7307 37.4932 94.423 37.6432 94.1571 37.8417C93.8911 38.0403 93.6721 38.2833 93.5126 38.557C93.3531 38.8307 93.2563 39.1296 93.2277 39.4365C93.1991 39.7434 93.2393 40.0523 93.346 40.3455L103.46 68.6058C103.565 68.899 103.735 69.1708 103.96 69.4058C104.184 69.6408 104.459 69.8344 104.768 69.9755C105.077 70.1166 105.414 70.2024 105.76 70.2281C106.107 70.2538 106.456 70.2188 106.787 70.1252C107.118 70.0316 107.425 69.8811 107.69 69.6825C107.956 69.4838 108.175 69.2407 108.334 68.9673C108.493 68.6938 108.59 68.3952 108.619 68.0885C108.648 67.7818 108.609 67.4731 108.503 67.18L98.3896 38.9196C98.2845 38.626 98.115 38.3536 97.8908 38.1182C97.6665 37.8828 97.3919 37.6889 97.0827 37.5477C96.7735 37.4065 96.4359 37.3208 96.0892 37.2955C95.7425 37.2702 95.3935 37.3058 95.0624 37.4002Z" fill="black"/>
<path d="M81.8594 74.8C81.8594 75.4199 82.1376 76.0145 82.6328 76.4529C83.128 76.8912 83.7997 77.1375 84.5 77.1375C85.2003 77.1375 85.872 76.8912 86.3672 76.4529C86.8624 76.0145 87.1406 75.4199 87.1406 74.8V72.4625C87.1406 71.8426 86.8624 71.248 86.3672 70.8096C85.872 70.3713 85.2003 70.125 84.5 70.125C83.7997 70.125 83.128 70.3713 82.6328 70.8096C82.1376 71.248 81.8594 71.8426 81.8594 72.4625V74.8Z" fill="black"/>
<path d="M132.031 86.4875C132.031 81.8125 124.717 78.5166 110.299 76.4596C106.312 75.8986 102.139 75.4778 97.888 75.1973C97.5368 75.1752 97.1842 75.2154 96.8509 75.3156C96.5175 75.4158 96.2102 75.574 95.947 75.7809C95.6837 75.9878 95.4698 76.2392 95.318 76.5204C95.1661 76.8015 95.0792 77.1067 95.0625 77.418C95.0262 78.0305 95.2634 78.631 95.7228 79.0902C96.1822 79.5493 96.827 79.8302 97.5183 79.8723C101.083 80.1061 104.516 80.4567 107.87 80.8775L123.713 124.939C122.387 124.388 121.03 123.896 119.647 123.467C119.319 123.365 118.972 123.322 118.625 123.34C118.279 123.357 117.94 123.435 117.627 123.568C117.314 123.702 117.034 123.888 116.803 124.118C116.572 124.347 116.394 124.614 116.28 124.904C116.165 125.194 116.117 125.502 116.136 125.808C116.156 126.115 116.244 126.415 116.395 126.692C116.545 126.969 116.756 127.217 117.015 127.421C117.274 127.626 117.576 127.783 117.904 127.885C124.796 130.012 126.75 132.209 126.75 133.237C126.75 136.51 112.227 142.587 84.5 142.587C56.7734 142.587 42.25 136.51 42.25 133.237C42.25 132.209 44.2041 130.012 51.1489 127.885C51.4766 127.783 51.7786 127.626 52.0375 127.421C52.2965 127.217 52.5074 126.969 52.6582 126.692C52.809 126.415 52.8967 126.115 52.9164 125.808C52.9361 125.502 52.8873 125.194 52.7729 124.904C52.6585 124.614 52.4806 124.347 52.2495 124.118C52.0183 123.888 51.7385 123.702 51.4258 123.568C51.1132 123.435 50.7739 123.357 50.4274 123.34C50.0808 123.322 49.7338 123.365 49.4061 123.467C48.0232 123.896 46.666 124.388 45.3395 124.939L53.0502 103.458C53.2638 102.866 53.2029 102.223 52.881 101.67C52.7217 101.397 52.503 101.154 52.2375 100.955C51.972 100.757 51.6649 100.606 51.3338 100.512C50.6649 100.323 49.9386 100.377 49.3147 100.662C48.6907 100.947 48.2202 101.44 48.0066 102.032L37.9194 130.199C37.3117 131.122 36.9842 132.169 36.9688 133.237C36.9687 142.447 60.8928 147.262 84.5 147.262C108.107 147.262 132.031 142.447 132.031 133.237C132.016 132.169 131.688 131.122 131.081 130.199L118.458 94.996C127.437 92.939 132.031 90.0872 132.031 86.4875ZM116.874 90.5547L113.732 81.8125C124.109 83.6591 126.75 85.9265 126.75 86.4875C126.75 87.0485 124.637 88.825 116.874 90.5547Z" fill="black"/>
<path d="M47.7956 21.2013C47.7724 21.1565 47.7352 21.1186 47.6884 21.092C47.6416 21.0654 47.5871 21.0513 47.5315 21.0513C47.4759 21.0513 47.4214 21.0654 47.3746 21.092C47.3278 21.1186 47.2906 21.1565 47.2674 21.2013C47.0721 22.2734 46.5001 23.2638 45.6326 24.0317C44.7651 24.7996 43.6463 25.306 42.4351 25.4789C42.3845 25.4994 42.3417 25.5323 42.3116 25.5738C42.2816 25.6152 42.2656 25.6634 42.2656 25.7127C42.2656 25.7619 42.2816 25.8101 42.3116 25.8515C42.3417 25.893 42.3845 25.9259 42.4351 25.9464C43.6463 26.1193 44.7651 26.6257 45.6326 27.3936C46.5001 28.1615 47.0721 29.1519 47.2674 30.224C47.2906 30.2688 47.3278 30.3067 47.3746 30.3333C47.4214 30.3599 47.4759 30.374 47.5315 30.374C47.5871 30.374 47.6416 30.3599 47.6884 30.3333C47.7352 30.3067 47.7724 30.2688 47.7956 30.224C47.9909 29.1519 48.5629 28.1615 49.4304 27.3936C50.2979 26.6257 51.4167 26.1193 52.6279 25.9464C52.6785 25.9259 52.7213 25.893 52.7514 25.8515C52.7814 25.8101 52.7974 25.7619 52.7974 25.7127C52.7974 25.6634 52.7814 25.6152 52.7514 25.5738C52.7213 25.5323 52.6785 25.4994 52.6279 25.4789C51.4167 25.306 50.2979 24.7996 49.4304 24.0317C48.5629 23.2638 47.9909 22.2734 47.7956 21.2013Z" fill="black"/>
<path d="M55.7174 35.2262C55.6943 35.1814 55.6571 35.1435 55.6102 35.1169C55.5634 35.0903 55.509 35.0762 55.4534 35.0762C55.3977 35.0762 55.3433 35.0903 55.2965 35.1169C55.2497 35.1435 55.2125 35.1814 55.1893 35.2262C54.994 36.2983 54.422 37.2887 53.5545 38.0566C52.687 38.8245 51.5681 39.3309 50.357 39.5038C50.3064 39.5243 50.2635 39.5572 50.2335 39.5987C50.2035 39.6401 50.1875 39.6883 50.1875 39.7376C50.1875 39.7868 50.2035 39.835 50.2335 39.8764C50.2635 39.9179 50.3064 39.9508 50.357 39.9713C51.5681 40.1442 52.687 40.6506 53.5545 41.4185C54.422 42.1864 54.994 43.1768 55.1893 44.2489C55.2125 44.2937 55.2497 44.3316 55.2965 44.3582C55.3433 44.3848 55.3977 44.3989 55.4534 44.3989C55.509 44.3989 55.5634 44.3848 55.6102 44.3582C55.6571 44.3316 55.6943 44.2937 55.7174 44.2489C55.9127 43.1768 56.4848 42.1864 57.3523 41.4185C58.2198 40.6506 59.3386 40.1442 60.5498 39.9713C60.6003 39.9508 60.6432 39.9179 60.6732 39.8764C60.7033 39.835 60.7192 39.7868 60.7192 39.7376C60.7192 39.6883 60.7033 39.6401 60.6732 39.5987C60.6432 39.5572 60.6003 39.5243 60.5498 39.5038C59.3386 39.3309 58.2198 38.8245 57.3523 38.0566C56.4848 37.2887 55.9127 36.2983 55.7174 35.2262Z" fill="black"/>
<path d="M121.205 30.224C121.228 30.2688 121.265 30.3067 121.312 30.3333C121.359 30.3599 121.413 30.374 121.469 30.374C121.525 30.374 121.579 30.3599 121.626 30.3333C121.673 30.3067 121.71 30.2688 121.733 30.224C121.928 29.1519 122.5 28.1615 123.368 27.3936C124.235 26.6257 125.354 26.1193 126.565 25.9464C126.616 25.9259 126.659 25.893 126.689 25.8515C126.719 25.8101 126.735 25.7619 126.735 25.7127C126.735 25.6634 126.719 25.6152 126.689 25.5738C126.659 25.5323 126.616 25.4994 126.565 25.4789C125.354 25.306 124.235 24.7996 123.368 24.0317C122.5 23.2638 121.928 22.2734 121.733 21.2013C121.71 21.1565 121.673 21.1186 121.626 21.092C121.579 21.0654 121.525 21.0513 121.469 21.0513C121.413 21.0513 121.359 21.0654 121.312 21.092C121.265 21.1186 121.228 21.1565 121.205 21.2013C121.01 22.2734 120.438 23.2638 119.57 24.0317C118.703 24.7996 117.584 25.306 116.373 25.4789C116.322 25.4994 116.279 25.5323 116.249 25.5738C116.219 25.6152 116.203 25.6634 116.203 25.7127C116.203 25.7619 116.219 25.8101 116.249 25.8515C116.279 25.893 116.322 25.9259 116.373 25.9464C117.584 26.1193 118.703 26.6257 119.57 27.3936C120.438 28.1615 121.01 29.1519 121.205 30.224Z" fill="black"/>
<path d="M113.811 35.2262C113.788 35.1814 113.751 35.1435 113.704 35.1169C113.657 35.0903 113.603 35.0762 113.547 35.0762C113.491 35.0762 113.437 35.0903 113.39 35.1169C113.343 35.1435 113.306 35.1814 113.283 35.2262C113.088 36.2983 112.516 37.2887 111.648 38.0566C110.781 38.8245 109.662 39.3309 108.451 39.5038C108.4 39.5243 108.357 39.5572 108.327 39.5987C108.297 39.6401 108.281 39.6883 108.281 39.7376C108.281 39.7868 108.297 39.835 108.327 39.8764C108.357 39.9179 108.4 39.9508 108.451 39.9713C109.662 40.1442 110.781 40.6506 111.648 41.4185C112.516 42.1864 113.088 43.1768 113.283 44.2489C113.306 44.2937 113.343 44.3316 113.39 44.3582C113.437 44.3848 113.491 44.3989 113.547 44.3989C113.603 44.3989 113.657 44.3848 113.704 44.3582C113.751 44.3316 113.788 44.2937 113.811 44.2489C114.006 43.1768 114.579 42.1864 115.446 41.4185C116.314 40.6506 117.432 40.1442 118.644 39.9713C118.694 39.9508 118.737 39.9179 118.767 39.8764C118.797 39.835 118.813 39.7868 118.813 39.7376C118.813 39.6883 118.797 39.6401 118.767 39.5987C118.737 39.5572 118.694 39.5243 118.644 39.5038C117.432 39.3309 116.314 38.8245 115.446 38.0566C114.579 37.2887 114.006 36.2983 113.811 35.2262Z" fill="black"/>
<path d="M86.8237 3.5295C86.5975 3.15841 86.262 2.84842 85.8529 2.63237C85.4438 2.41632 84.9763 2.30225 84.5 2.30225C84.0236 2.30225 83.5561 2.41632 83.147 2.63237C82.7379 2.84842 82.4025 3.15841 82.1762 3.5295L74.4128 14.8664C74.1026 15.3171 73.9385 15.8346 73.9385 16.3624C73.9385 16.8901 74.1026 17.4077 74.4128 17.8584L82.1762 29.1952C82.4025 29.5663 82.7379 29.8763 83.147 30.0924C83.5561 30.3084 84.0236 30.4225 84.5 30.4225C84.9763 30.4225 85.4438 30.3084 85.8529 30.0924C86.262 29.8763 86.5975 29.5663 86.8237 29.1952L94.5872 17.8584C94.8974 17.4077 95.0615 16.8901 95.0615 16.3624C95.0615 15.8346 94.8974 15.3171 94.5872 14.8664L86.8237 3.5295Z" fill="black"/>
<path d="M144.601 49.3679C145.336 48.7156 145.919 47.9415 146.316 47.0898C146.713 46.2381 146.917 45.3255 146.916 44.4041C146.914 43.4827 146.708 42.5706 146.309 41.7197C145.909 40.8689 145.324 40.096 144.587 39.4452C143.85 38.7944 142.976 38.2785 142.014 37.9269C141.052 37.5753 140.021 37.3949 138.98 37.396C137.939 37.3971 136.909 37.5796 135.947 37.9333C134.986 38.2869 134.113 38.8046 133.378 39.4569L118.458 52.6872C116.975 54.002 116.142 55.7843 116.142 57.6426C116.142 59.501 116.975 61.2833 118.458 62.5982C119.97 63.8674 121.973 64.575 124.057 64.575C126.14 64.575 128.143 63.8674 129.655 62.5982L148.324 79.1243C150.306 80.8787 152.994 81.8643 155.797 81.8643C158.6 81.8643 161.288 80.8787 163.27 79.1243C165.252 77.3698 166.365 74.9903 166.365 72.5091C166.365 70.028 165.252 67.6485 163.27 65.894L144.601 49.3679ZM139.504 64.7019L131.582 57.6894C131.337 57.4703 131.045 57.2964 130.723 57.1777C130.401 57.0591 130.056 56.998 129.707 56.998C129.359 56.998 129.014 57.0591 128.692 57.1777C128.37 57.2964 128.078 57.4703 127.833 57.6894L125.984 59.3256C125.739 59.5447 125.447 59.7186 125.125 59.8373C124.803 59.956 124.458 60.0171 124.109 60.0171C123.761 60.0171 123.416 59.956 123.094 59.8373C122.772 59.7186 122.48 59.5447 122.234 59.3256C121.743 58.8877 121.467 58.2952 121.467 57.6777C121.467 57.0602 121.743 56.4677 122.234 56.0298L137.18 42.7995C137.675 42.3642 138.344 42.1198 139.042 42.1198C139.74 42.1198 140.409 42.3642 140.904 42.7995C141.151 43.0168 141.348 43.2754 141.482 43.5602C141.616 43.845 141.685 44.1506 141.685 44.4592C141.685 44.7677 141.616 45.0733 141.482 45.3581C141.348 45.6429 141.151 45.9015 140.904 46.1188L139.055 47.755C138.808 47.9723 138.611 48.2309 138.477 48.5157C138.343 48.8005 138.274 49.1061 138.274 49.4146C138.274 49.7232 138.343 50.0287 138.477 50.3136C138.611 50.5984 138.808 50.857 139.055 51.0743L146.528 57.6894C143.782 60.1204 141.907 62.341 139.504 64.7019Z" fill="black"/>
<path d="M5.67743 79.0775C6.6584 79.9469 7.82332 80.6365 9.10559 81.107C10.3879 81.5776 11.7623 81.8198 13.1504 81.8198C14.5385 81.8198 15.9129 81.5776 17.1952 81.107C18.4775 80.6365 19.6424 79.9469 20.6234 79.0775L39.2926 62.5514C40.8038 63.8207 42.8075 64.5283 44.8907 64.5283C46.9739 64.5283 48.9777 63.8207 50.4888 62.5514C51.2274 61.8999 51.8134 61.1258 52.2132 60.2734C52.613 59.421 52.8188 58.5072 52.8188 57.5842C52.8188 56.6613 52.613 55.7474 52.2132 54.895C51.8134 54.0426 51.2274 53.2685 50.4888 52.617L35.5429 39.4101C34.8177 38.7212 33.9431 38.1686 32.9713 37.7853C31.9996 37.402 30.9506 37.1959 29.8869 37.1793C28.8232 37.1627 27.7667 37.3359 26.7803 37.6886C25.7939 38.0413 24.8978 38.5662 24.1456 39.2321C23.3933 39.898 22.8003 40.6912 22.4019 41.5644C22.0034 42.4376 21.8078 43.3729 21.8265 44.3144C21.8453 45.256 22.0781 46.1846 22.5111 47.0448C22.9441 47.905 23.5683 48.6792 24.3466 49.3211L5.67743 65.8473C4.69537 66.7156 3.91629 67.7468 3.38474 68.8819C2.85319 70.017 2.57959 71.2337 2.57959 72.4624C2.57959 73.6911 2.85319 74.9078 3.38474 76.0429C3.91629 77.178 4.69537 78.2092 5.67743 79.0775ZM29.9448 51.0275C30.1923 50.8102 30.3887 50.5517 30.5228 50.2668C30.6568 49.982 30.7259 49.6765 30.7259 49.3679C30.7259 49.0593 30.6568 48.7538 30.5228 48.4689C30.3887 48.1841 30.1923 47.9256 29.9448 47.7083L28.0963 46.072C27.5991 45.635 27.3184 45.0409 27.3159 44.4207C27.3134 43.8004 27.5894 43.2046 28.0831 42.7645C28.5769 42.3243 29.2479 42.0758 29.9486 42.0736C30.6494 42.0714 31.3224 42.3157 31.8196 42.7528L46.7656 55.983C47.2574 56.421 47.5334 57.0134 47.5334 57.631C47.5334 58.2485 47.2574 58.8409 46.7656 59.2789C46.5201 59.498 46.228 59.6719 45.9062 59.7906C45.5844 59.9092 45.2393 59.9703 44.8907 59.9703C44.5421 59.9703 44.197 59.9092 43.8752 59.7906C43.5534 59.6719 43.2613 59.498 43.0159 59.2789L41.1674 57.6426C40.922 57.4236 40.6299 57.2497 40.3081 57.131C39.9863 57.0123 39.6412 56.9512 39.2926 56.9512C38.944 56.9512 38.5988 57.0123 38.2771 57.131C37.9553 57.2497 37.6632 57.4236 37.4177 57.6426L29.4959 64.6551C27.1193 62.3176 25.2445 59.9801 22.551 57.6426L29.9448 51.0275Z" fill="black"/>
<path d="M56.2715 129.147C55.7114 130.055 55.4311 131.077 55.4589 132.111C55.4867 133.145 55.8216 134.154 56.4299 135.037C57.0128 135.917 57.8465 136.645 58.8476 137.15C59.8486 137.655 60.9818 137.918 62.1337 137.913H106.866C108.018 137.918 109.151 137.655 110.152 137.15C111.153 136.645 111.987 135.917 112.57 135.037C113.178 134.154 113.513 133.145 113.541 132.111C113.568 131.077 113.288 130.055 112.728 129.147V128.983L95.0623 104.51V93.5H97.7029C99.1036 93.5 100.447 93.0075 101.437 92.1307C102.428 91.254 102.984 90.0649 102.984 88.825V86.4875C102.984 85.2476 102.428 84.0585 101.437 83.1818C100.447 82.305 99.1036 81.8125 97.7029 81.8125H71.2967C69.896 81.8125 68.5527 82.305 67.5623 83.1818C66.5718 84.0585 66.0154 85.2476 66.0154 86.4875V88.825C66.0154 90.0649 66.5718 91.254 67.5623 92.1307C68.5527 93.0075 69.896 93.5 71.2967 93.5H73.9373V104.51L56.2715 129.147ZM92.7649 120.358L89.2265 123.42C89.1628 123.473 89.115 123.539 89.0873 123.613C89.0597 123.686 89.0531 123.764 89.0681 123.841L89.9131 128.165C89.9292 128.251 89.9179 128.339 89.8806 128.419C89.8433 128.5 89.7814 128.569 89.7018 128.62C89.6223 128.671 89.5282 128.702 89.4303 128.708C89.3323 128.714 89.2343 128.696 89.1473 128.656L84.7374 126.622C84.6689 126.577 84.5855 126.552 84.4998 126.552C84.4141 126.552 84.3307 126.577 84.2621 126.622L79.8523 128.562C79.7653 128.603 79.6673 128.621 79.5693 128.615C79.4713 128.608 79.3773 128.578 79.2977 128.527C79.2182 128.476 79.1563 128.406 79.119 128.326C79.0816 128.245 79.0704 128.157 79.0865 128.072L79.9315 123.888C79.9465 123.811 79.9399 123.733 79.9122 123.659C79.8846 123.586 79.8368 123.52 79.7731 123.467L76.2346 120.405C76.165 120.344 76.1158 120.267 76.0926 120.183C76.0694 120.099 76.073 120.01 76.1032 119.928C76.1333 119.846 76.1887 119.772 76.2632 119.716C76.3377 119.66 76.4284 119.623 76.5251 119.61L81.4367 118.979C81.5206 118.966 81.5999 118.936 81.6686 118.891C81.7373 118.847 81.7935 118.789 81.8328 118.722L84.0245 114.771C84.0677 114.692 84.1352 114.626 84.2193 114.579C84.3034 114.532 84.4006 114.508 84.4998 114.508C84.599 114.508 84.6962 114.532 84.7803 114.579C84.8643 114.626 84.9319 114.692 84.9751 114.771L87.1404 118.675C87.1797 118.742 87.2359 118.8 87.3045 118.844C87.3732 118.889 87.4526 118.919 87.5365 118.932L92.4481 119.563C92.547 119.573 92.6408 119.607 92.7188 119.661C92.7968 119.716 92.8558 119.789 92.8889 119.872C92.922 119.955 92.9279 120.045 92.906 120.131C92.8841 120.217 92.8352 120.295 92.7649 120.358ZM71.2967 88.825V86.4875H97.7029V88.825H93.742C92.6915 88.825 91.684 89.1944 90.9412 89.852C90.1983 90.5095 89.781 91.4013 89.781 92.3313V99.3438C85.9785 100.092 83.021 101.027 79.2185 101.681V92.3313C79.2185 91.4013 78.8012 90.5095 78.0584 89.852C77.3156 89.1944 76.3081 88.825 75.2576 88.825H71.2967Z" fill="black"/>
</svg>
