<svg width="101" height="40" viewBox="0 0 101 40" fill="none" xmlns="http://www.w3.org/2000/svg">
<path d="M21.2414 1.6H26.05V39H13.4943C9.61181 39 6.45952 37.7711 4.03743 35.3134C1.61533 32.8201 0.404286 29.6856 0.404286 25.91C0.404286 22.2056 1.65095 19.1068 4.14429 16.6134C6.67324 14.0845 9.66524 12.82 13.1203 12.82C15.3287 12.82 17.3946 13.3543 19.318 14.4229V19.2314C17.537 17.9491 15.4711 17.308 13.1203 17.308C10.9831 17.308 9.16657 18.1094 7.67057 19.7123C6.21019 21.2795 5.48 23.3454 5.48 25.91C5.48 28.5102 6.17457 30.5939 7.56371 32.1611C8.98848 33.7284 10.9653 34.512 13.4943 34.512H21.2414V1.6ZM38.0693 12.82C44.1246 13.0693 47.1522 15.5805 47.1522 20.3534C47.1522 26.3018 43.2519 29.276 35.4513 29.276H33.2608V25.162H35.8253C38.2118 25.162 39.8681 24.8058 40.7942 24.0934C41.7203 23.3454 42.1833 22.1166 42.1833 20.4069C42.1833 19.3027 41.7737 18.4834 40.9545 17.9491C40.1352 17.3792 39.0845 17.0943 37.8022 17.0943C35.2732 17.0943 33.2786 17.9848 31.8182 19.7657C30.3934 21.5467 29.6811 23.6838 29.6811 26.1771C29.6811 28.813 30.4469 30.9501 31.9785 32.5886C33.5457 34.227 35.576 35.0463 38.0693 35.0463C40.3133 35.0463 42.1477 34.4942 43.5725 33.39L46.7782 36.5423C44.3205 38.537 41.4175 39.5343 38.0693 39.5343C34.0088 39.5343 30.7674 38.341 28.3453 35.9546C25.9232 33.5681 24.7122 30.487 24.7122 26.7114C24.7122 22.5084 25.9054 19.1068 28.2919 16.5066C30.6784 13.9064 33.9375 12.6775 38.0693 12.82ZM45.8102 13.3543H69.3722C71.9012 13.3543 73.9137 13.8351 75.4096 14.7969C76.9413 15.7586 77.9386 17.0052 78.4016 18.5369C78.9003 20.0685 79.1496 21.9029 79.1496 24.04V39H74.4479V24.04C74.4479 21.2617 73.6109 19.4273 71.9368 18.5369C71.0819 18.0738 69.3544 17.8423 66.7542 17.8423H64.5636V39H59.8619V17.8423H50.5119V39H45.8102V13.3543ZM84.4938 39.2137C82.606 39.2137 81.1634 38.6616 80.166 37.5574C79.1687 36.4176 78.67 34.9572 78.67 33.1763V12.3926H84.7609V32.642C84.7609 33.4612 84.8856 34.0133 85.1349 34.2983C85.3842 34.5832 85.7582 34.7257 86.2569 34.7257C86.3994 34.7257 86.5419 34.7257 86.6843 34.7257C86.8624 34.7257 87.0227 34.7079 87.1652 34.6723C87.3077 34.6723 87.468 34.6545 87.646 34.6189L88.2872 38.4657C88.0379 38.6082 87.7173 38.7329 87.3255 38.8397C87.0049 38.9466 86.5953 39.0356 86.0966 39.1069C85.6336 39.1781 85.0993 39.2137 84.4938 39.2137ZM81.8223 0.531428C82.9621 0.531428 83.8348 0.869809 84.4403 1.54657C85.0459 2.22333 85.3486 3.096 85.3486 4.16457C85.3486 5.23314 85.028 6.12362 84.3869 6.836C83.7814 7.54838 82.8731 7.90457 81.662 7.90457C80.5222 7.90457 79.6318 7.56619 78.9906 6.88943C78.3851 6.17705 78.0823 5.32219 78.0823 4.32486C78.0823 3.22067 78.3851 2.31238 78.9906 1.6C79.6318 0.887618 80.5757 0.531428 81.8223 0.531428Z" fill="white"/>
<path d="M95.6421 39.8655C93.8042 39.8655 92.4471 39.3954 91.5709 38.455C90.716 37.5147 90.2886 36.2003 90.2886 34.512V34.1594C90.2886 32.4924 90.716 31.1781 91.5709 30.2163C92.4471 29.2546 93.8042 28.7738 95.6421 28.7738C97.4373 28.7738 98.773 29.2546 99.6493 30.2163C100.526 31.1781 100.964 32.4924 100.964 34.1594V34.512C100.964 36.2003 100.526 37.5147 99.6493 38.455C98.773 39.3954 97.4373 39.8655 95.6421 39.8655Z" fill="#FF0642"/>
</svg>
