<svg width="337" height="176" viewBox="0 0 337 176" fill="none" xmlns="http://www.w3.org/2000/svg">
<path d="M322.563 81.5624C322.339 81.4757 312.234 77.3022 297.869 67.614C298.986 58.4114 303.918 52.0644 303.974 51.9892L301.71 47.6134C301.43 47.9602 296.054 54.7408 294.44 65.244C291.944 63.4867 289.348 61.5791 286.666 59.5039C287.054 48.8504 293.129 41.249 293.192 41.1681L290.973 36.746C290.663 37.1217 284.327 44.8849 283.15 56.7235C280.696 54.7408 278.193 52.6366 275.649 50.3822C276.187 39.0004 282.609 30.9365 282.68 30.8498L280.453 26.4335C280.124 26.8266 273.579 34.9077 272.193 47.2607C269.716 44.9774 267.217 42.567 264.703 40.0235C265.898 29.5029 272.421 22.1906 272.5 22.1097L270.411 17.5315C270.064 17.9072 263.481 25.2485 261.472 36.6708C259.746 34.8442 258.02 32.9597 256.294 31.0117C256.234 20.5836 261.524 13.0689 261.584 12.988L259.189 8.78552C258.935 9.13235 253.869 16.2366 252.831 27C250.742 24.5201 248.669 21.9362 246.614 19.2598C246.327 10.3983 250.231 3.9761 250.272 3.91252L247.671 0.00488301C247.492 0.288129 244.014 6.01086 243.174 14.6585C240.495 10.9821 237.858 7.14961 235.291 3.1148L228.839 12.9417C234.301 21.5258 240.021 29.2833 245.811 36.3298C242.322 44.9023 236.651 62.5445 236.651 86.7765C236.651 113.691 244.44 136.09 248.8 146.536C243.895 152.143 238.844 158.126 233.632 164.6L239.296 175.519C286.397 116.997 322.683 95.1005 323.045 94.8866L336.229 87.0597L322.563 81.5624ZM251.74 143.166C249.121 136.79 245.236 125.882 242.722 112.35C246.102 109.829 253.073 102.904 253.073 88.5395C253.073 70.7239 245.848 64.0879 242.512 61.9664C244.317 52.099 246.842 44.5034 248.718 39.7692C271.554 66.4868 295.109 81.9497 308.711 89.4355C296.935 98.2219 276.639 115.153 251.74 143.166Z" fill="black"/>
<path d="M100.93 3.10992C98.3635 7.14473 95.7223 10.9772 93.0438 14.6537C92.2032 6.01175 88.7252 0.283247 88.5459 9.16471e-07L85.9495 3.90186C85.9906 3.96544 89.887 10.3934 89.6068 19.2492C87.5521 21.9256 85.475 24.5037 83.3867 26.9835C82.3482 16.226 77.2824 9.12169 77.0284 8.78064L74.6375 12.9888C74.6935 13.064 79.9834 20.5093 79.9199 30.9952C78.194 32.9433 76.468 34.8277 74.7421 36.6544C72.7322 25.2378 66.1535 17.9023 65.8061 17.5266L63.7177 22.1047C63.7925 22.1857 70.3189 29.4518 71.5069 40.0013C68.9927 42.5447 66.4934 44.9552 64.0166 47.2385C62.6269 34.8971 56.0855 26.8274 55.7568 26.4344L53.5302 30.8507C53.6012 30.9374 60.0156 38.9897 60.561 50.36C58.0169 52.6086 55.5102 54.7185 53.0558 56.6955C51.8715 44.8685 45.5468 37.111 45.233 36.7353L43.014 41.1632C43.0812 41.2441 49.1481 48.7819 49.5367 59.4759C46.8544 61.5511 44.2543 63.4645 41.7587 65.2218C40.1411 54.7301 34.7728 47.9553 34.4926 47.6085L32.2325 51.9843C32.2922 52.0595 37.2197 58.3487 38.3367 67.586C23.9689 77.2799 13.8598 81.4708 13.6394 81.5575L9.15568e-07 87.0606L13.1575 94.8701C13.5198 95.084 49.8019 116.981 96.9066 175.503L102.574 164.583C97.3623 158.109 92.3115 152.126 87.4064 146.519C91.7661 136.074 99.5552 113.674 99.5552 86.76C99.5552 62.528 93.8806 44.8916 90.3951 36.3191C96.1856 29.2726 101.905 21.5151 107.371 12.9311L100.93 3.10992ZM93.7125 61.9673C90.3801 64.083 83.1439 70.7133 83.1439 88.5462C83.1439 102.917 90.1149 109.842 93.4958 112.356C90.9816 125.883 87.0964 136.791 84.4738 143.166C59.5748 115.154 39.2744 98.2228 27.4992 89.4364C41.105 81.9506 64.6629 66.4819 87.4998 39.7643C89.3827 44.4928 91.9081 52.0884 93.7125 61.9673Z" fill="black"/>
<path d="M113.789 79.0024C111.293 79.0024 109.261 82.1412 109.261 86.0083C109.261 89.8754 111.289 93.0142 113.789 93.0142C116.284 93.0142 118.316 89.8754 118.316 86.0083C118.316 82.1412 116.284 79.0024 113.789 79.0024Z" fill="black"/>
<path d="M131.896 79.002C129.4 79.002 127.368 82.1407 127.368 86.0078C127.368 89.8749 129.397 93.0137 131.896 93.0137C134.391 93.0137 136.424 89.8749 136.424 86.0078C136.424 82.1407 134.391 79.002 131.896 79.002Z" fill="black"/>
<path d="M149.999 79.002C147.504 79.002 145.472 82.1407 145.472 86.0078C145.472 89.8749 147.5 93.0137 149.999 93.0137C152.499 93.0137 154.527 89.8749 154.527 86.0078C154.527 82.1407 152.499 79.002 149.999 79.002Z" fill="black"/>
<path d="M168.106 79.0024C165.611 79.0024 163.579 82.1412 163.579 86.0083C163.579 89.8754 165.607 93.0142 168.106 93.0142C170.602 93.0142 172.634 89.8754 172.634 86.0083C172.634 82.1412 170.602 79.0024 168.106 79.0024Z" fill="black"/>
<path d="M186.214 79.002C183.718 79.002 181.686 82.1407 181.686 86.0078C181.686 89.8749 183.715 93.0137 186.214 93.0137C188.713 93.0137 190.742 89.8749 190.742 86.0078C190.742 82.1407 188.709 79.002 186.214 79.002Z" fill="black"/>
<path d="M204.317 79.002C201.822 79.002 199.79 82.1407 199.79 86.0078C199.79 89.8749 201.818 93.0137 204.317 93.0137C206.813 93.0137 208.845 89.8749 208.845 86.0078C208.845 82.1407 206.817 79.002 204.317 79.002Z" fill="black"/>
<path d="M222.425 79.0024C219.929 79.0024 217.897 82.1412 217.897 86.0083C217.897 89.8754 219.926 93.0142 222.425 93.0142C224.924 93.0142 226.953 89.8754 226.953 86.0083C226.953 82.1412 224.92 79.0024 222.425 79.0024Z" fill="black"/>
</svg>
