<svg width="16" height="16" viewBox="0 0 16 16" fill="none" xmlns="http://www.w3.org/2000/svg">
<rect width="16" height="16" rx="5" fill="#F3505F"/>
<path d="M9.05556 4H10.2222V12H7.17593C6.23395 12 5.46914 11.7371 4.88148 11.2114C4.29383 10.6781 4 10.0076 4 9.2C4 8.40762 4.30247 7.74476 4.90741 7.21143C5.52099 6.67048 6.24691 6.4 7.08518 6.4C7.62099 6.4 8.12222 6.51429 8.58889 6.74286V7.77143C8.15679 7.49714 7.65556 7.36 7.08518 7.36C6.56667 7.36 6.12593 7.53143 5.76296 7.87428C5.40864 8.20952 5.23148 8.65143 5.23148 9.2C5.23148 9.75619 5.4 10.2019 5.73704 10.5371C6.08272 10.8724 6.56235 11.04 7.17593 11.04H9.05556V4Z" fill="#1D1C1C"/>
<path d="M12.0023 11.9999C11.6974 11.9999 11.4726 11.9247 11.328 11.7743C11.1834 11.6207 11.1111 11.4089 11.1111 11.1387V11.088C11.1111 10.8209 11.1834 10.6106 11.328 10.4571C11.4726 10.3005 11.6974 10.2222 12.0023 10.2222C12.301 10.2222 12.5226 10.3005 12.6672 10.4571C12.815 10.6106 12.8889 10.8209 12.8889 11.088V11.1387C12.8889 11.4089 12.815 11.6207 12.6672 11.7743C12.5226 11.9247 12.301 11.9999 12.0023 11.9999Z" fill="#1D1C1C"/>
</svg>
