<svg width="163" height="188" viewBox="0 0 163 188" fill="none" xmlns="http://www.w3.org/2000/svg">
<path d="M117.471 36.7212C107.96 27.8383 95.2017 22.7889 81.6177 22.498L81.5323 22.498C81.3329 22.498 80.3077 22.5245 80.2792 22.5245C66.6668 22.8153 53.9372 27.8648 44.3971 36.7212C34.8285 45.6041 29.5601 57.3686 29.5601 69.8205C29.5601 81.8494 31.8098 90.8116 36.6226 98.0289C37.2206 98.9278 37.7047 99.7209 38.1889 100.488C38.7299 101.334 39.2141 102.153 39.8121 103.026C47.3018 113.997 51.8583 125.709 52.3424 135.2C52.4278 137.05 52.9689 138.769 53.4815 140.434L53.6239 140.857C55.1048 145.695 59.9175 149.079 65.3568 149.079L98.4197 148.92L98.5905 148.894C103.147 148.127 106.906 144.981 108.188 140.831L108.33 140.408C108.843 138.742 109.355 137.024 109.469 135.173C109.953 125.682 114.51 113.97 121.999 102.999C122.597 102.127 123.11 101.307 123.623 100.461C124.107 99.6945 124.591 98.8749 125.189 98.0025C130.002 90.8116 132.251 81.8494 132.251 69.7941C132.28 57.3686 127.012 45.6041 117.471 36.7212ZM71.7074 145.087C73.3876 137.42 74.1565 129.595 75.0678 121.796C76.9758 122.536 79.0832 122.827 81.3329 122.457C83.3549 122.113 85.1205 121.214 86.6868 120.025C87 121.822 87.3418 123.62 87.712 125.391C89.022 131.631 90.6737 137.896 93.2082 143.792C93.3791 144.188 93.5499 144.558 93.7208 144.955L71.7074 145.087ZM69.8563 111.247C68.1476 108.049 67.2933 104.374 67.2648 100.805C67.2363 99.1657 67.3503 97.5002 68.0053 95.9404C68.29 95.253 69.1728 93.4289 70.0841 93.3495C70.91 93.2702 71.5935 94.7507 71.8782 95.3323C72.5617 96.6542 72.9604 98.1347 73.2737 99.5887C73.7863 102.074 73.5584 104.295 73.0743 106.727C72.5902 109.212 72.1915 111.697 71.8213 114.182C71.0524 113.257 70.3689 112.252 69.8563 111.247ZM89.7054 98.4783C89.7909 97.8174 89.9902 96.8657 90.1896 96.099C90.4174 95.3323 90.6737 94.5657 91.0724 93.8519C91.2432 93.5346 91.8128 92.4242 92.2969 92.3978C93.1228 92.3449 93.7208 93.8254 93.9486 94.3541C94.6036 95.9404 94.7175 97.6852 94.4328 99.3508C93.8063 102.788 91.7558 106.119 90.0472 109.185C89.9048 109.423 89.7909 109.635 89.6485 109.873C89.3067 106.119 89.1928 102.232 89.7054 98.4783ZM121.601 95.9139C120.974 96.8657 120.462 97.6852 119.949 98.5048C119.436 99.3243 118.981 100.091 118.411 100.884C110.523 112.411 105.739 124.836 105.226 134.988C105.169 136.389 104.713 137.817 104.258 139.324L104.115 139.747C103.346 142.285 101.125 144.241 98.3912 144.875C96.1699 140.54 94.7745 135.834 93.5215 131.208C92.2115 126.29 91.1578 121.294 90.4459 116.271C92.8095 113.257 94.5752 109.873 96.2553 106.489C98.1918 102.603 99.6442 98.5312 98.4197 94.222C97.5369 91.0759 94.4612 86.9518 90.4174 88.8817C87.3133 90.3357 86.1457 94.1427 85.6616 97.1036C85.2059 99.8002 85.1205 102.497 85.1774 105.22C85.2629 108.551 85.5477 111.882 86.0033 115.187C85.4337 115.821 84.8072 116.403 84.1522 116.905C81.2475 119.152 78.2573 118.888 75.6943 117.434C76.1499 113.97 76.691 110.534 77.403 107.097C78.0864 103.819 78.058 100.699 77.2036 97.4209C76.4632 94.5128 74.8684 90.2035 71.2802 89.4633C67.2079 88.6437 64.5025 92.7679 63.6197 95.8346C62.4521 99.8002 63.0501 104.4 64.2177 108.287C65.3568 112.093 67.7774 116.482 71.2233 119.364C70.1696 127.824 69.4007 136.31 67.5211 144.638C67.4927 144.77 67.4642 144.928 67.4642 145.061L65.4422 145.061C61.911 145.061 58.7784 142.866 57.8102 139.72L57.6678 139.297C57.2121 137.79 56.7565 136.363 56.6995 134.962C56.1869 124.81 51.3741 112.384 43.5142 100.858C42.9732 100.065 42.489 99.2715 41.9764 98.4519C41.4638 97.6588 40.9512 96.8128 40.3247 95.8611C35.9391 89.3311 33.9172 81.0298 33.9172 69.7676C33.9172 46.4236 54.7915 26.9924 80.4216 26.4372C80.4216 26.4372 81.3899 26.4107 81.5892 26.4107L81.6177 26.4107C107.248 26.9659 128.065 46.4236 128.065 69.7676C128.008 81.0827 125.958 89.384 121.601 95.9139Z" fill="black"/>
<path d="M82.8707 21.4934C84.0383 21.4934 85.0066 20.5945 85.0066 19.5106L85.0066 1.98278C85.0066 0.898862 84.0383 4.32969e-10 82.8707 2.79937e-10C81.7031 1.26905e-10 80.7349 0.898862 80.7349 1.98278L80.7349 19.5106C80.7349 20.621 81.7031 21.4934 82.8707 21.4934Z" fill="black"/>
<path d="M48.2133 27.151C48.612 27.7854 49.3239 28.1556 50.0644 28.1556C50.4346 28.1556 50.8048 28.0763 51.118 27.8912C52.1432 27.336 52.485 26.1199 51.8869 25.1946L42.4323 10.0197C41.8342 9.06796 40.5243 8.75072 39.5275 9.3059C38.5023 9.86108 38.1606 11.0772 38.7586 12.0025L48.2133 27.151Z" fill="black"/>
<path d="M8.74286 41.1891L25.1177 49.9398C25.4594 50.1249 25.8296 50.2042 26.1714 50.2042C26.9118 50.2042 27.6237 49.8605 28.0224 49.1996C28.6205 48.2479 28.2502 47.0317 27.2535 46.503L10.9072 37.7259C9.88198 37.1707 8.572 37.5144 8.00244 38.4397C7.37592 39.4179 7.71766 40.634 8.74286 41.1891Z" fill="black"/>
<path d="M23.1526 76.932C23.1526 75.8481 22.1843 74.9492 21.0167 74.9492L2.13584 74.9492C0.968249 74.9492 2.44877e-08 75.8481 2.43456e-08 76.932C2.42035e-08 78.0159 0.968249 78.9148 2.13584 78.9148L21.0167 78.9148C22.1843 78.9148 23.1526 78.0424 23.1526 76.932Z" fill="black"/>
<path d="M28.2503 103.924L11.904 112.701C10.8788 113.256 10.5371 114.473 11.1351 115.398C11.5338 116.032 12.2457 116.402 12.9862 116.402C13.3564 116.402 13.7266 116.323 14.0398 116.138L30.3862 107.361C31.4114 106.806 31.7531 105.59 31.1551 104.664C30.557 103.713 29.247 103.395 28.2503 103.924Z" fill="black"/>
<path d="M150.164 112.701L133.818 103.924C132.793 103.369 131.483 103.713 130.913 104.638C130.315 105.59 130.685 106.806 131.682 107.335L148.028 116.112C148.37 116.297 148.74 116.376 149.082 116.376C149.822 116.376 150.534 116.032 150.933 115.371C151.531 114.446 151.189 113.256 150.164 112.701Z" fill="black"/>
<path d="M159.903 74.9492L141.023 74.9492C139.855 74.9492 138.887 75.8481 138.887 76.932C138.887 78.0159 139.855 78.9148 141.023 78.9148L159.903 78.9148C161.071 78.9148 162.039 78.0159 162.039 76.932C162.039 75.8481 161.071 74.9492 159.903 74.9492Z" fill="black"/>
<path d="M136.438 50.2041C136.808 50.2041 137.178 50.1248 137.491 49.9397L153.838 41.1626C154.863 40.6074 155.205 39.3913 154.607 38.466C154.009 37.5143 152.699 37.197 151.702 37.7522L135.356 46.5029C134.33 47.0581 133.989 48.2742 134.587 49.1995C134.985 49.8604 135.697 50.2041 136.438 50.2041Z" fill="black"/>
<path d="M112.716 28.9221C113.057 29.1071 113.428 29.1865 113.769 29.1865C114.51 29.1865 115.222 28.8428 115.62 28.1818L125.075 13.0069C125.673 12.0552 125.303 10.8391 124.306 10.3104C123.281 9.75517 121.971 10.0989 121.401 11.0242L111.947 26.1991C111.349 27.1772 111.719 28.3933 112.716 28.9221Z" fill="black"/>
<path d="M101.381 151.855L59.4618 151.855C57.0981 151.855 55.1616 153.653 55.1616 155.847L55.1616 158.491C55.1616 160.685 57.0981 162.483 59.4618 162.483L101.381 162.483C103.745 162.483 105.681 160.685 105.681 158.491L105.681 155.847C105.681 153.653 103.745 151.855 101.381 151.855Z" fill="black"/>
<path d="M97.7645 165.391L63.0784 165.391C60.9141 165.391 59.1484 167.03 59.1484 169.039L59.1484 172.344C59.1484 174.353 60.9141 175.992 63.0784 175.992L97.793 175.992C99.9573 175.992 101.723 174.353 101.723 172.344L101.723 169.039C101.723 167.03 99.9573 165.391 97.7645 165.391Z" fill="black"/>
<path d="M67.3504 178.398C67.3219 178.636 67.2935 178.847 67.2935 179.085C67.2935 183.87 73.1599 187.73 80.4218 187.73C87.6836 187.73 93.5501 183.844 93.5501 179.085C93.5501 178.847 93.5216 178.609 93.4931 178.398L67.3504 178.398Z" fill="black"/>
</svg>
