<svg width="252" height="121" viewBox="0 0 252 121" fill="none" xmlns="http://www.w3.org/2000/svg">
<path d="M240.943 55.9781C240.775 55.9186 233.227 53.0542 222.497 46.405C223.332 40.089 227.015 35.7329 227.057 35.6814L225.366 32.6781C225.157 32.9162 221.141 37.5698 219.936 44.7784C218.072 43.5723 216.132 42.2631 214.129 40.8389C214.419 33.5271 218.956 28.3101 219.004 28.2546L217.346 25.2196C217.114 25.4774 212.382 30.8055 211.503 38.9306C209.669 37.5698 207.8 36.1257 205.899 34.5785C206.301 26.7668 211.098 21.2324 211.151 21.1729L209.488 18.1419C209.242 18.4117 204.353 23.958 203.318 32.4361C201.468 30.869 199.601 29.2147 197.723 27.469C198.616 20.2485 203.488 15.2299 203.547 15.1743L201.987 12.0322C201.728 12.2901 196.811 17.3286 195.309 25.168C194.02 23.9143 192.731 22.621 191.442 21.284C191.397 14.127 195.349 8.96946 195.393 8.91392L193.604 6.02969C193.415 6.26773 189.631 11.1435 188.855 18.5307C187.295 16.8287 185.746 15.0553 184.212 13.2185C183.997 7.13657 186.913 2.72888 186.944 2.68524L185.001 0.00334167C184.867 0.19774 182.269 4.12538 181.642 10.0605C179.641 7.53726 177.671 4.90693 175.754 2.13775L170.934 8.88218C175.014 14.7736 179.286 20.0978 183.612 24.9339C181.005 30.8174 176.769 42.9257 176.769 59.5567C176.769 78.0285 182.588 93.4018 185.844 100.571C182.18 104.419 178.407 108.525 174.515 112.969L178.745 120.463C213.928 80.2977 241.032 65.2696 241.303 65.1228L251.15 59.751L240.943 55.9781ZM188.04 98.2578C186.084 93.8818 183.182 86.3955 181.304 77.108C183.829 75.3783 189.036 70.6254 189.036 60.7667C189.036 48.5394 183.64 43.9849 181.148 42.5289C182.495 35.7567 184.382 30.5437 185.783 27.2945C202.841 45.6314 220.435 56.2439 230.595 61.3816C221.8 67.4119 206.639 79.0322 188.04 98.2578Z" fill="black"/>
<path d="M75.3911 2.13441C73.474 4.90359 71.5011 7.53392 69.5003 10.0571C68.8725 4.126 66.2745 0.194398 66.1405 0L64.2011 2.67793C64.2318 2.72157 67.1423 7.13322 66.9331 13.2111C65.3983 15.048 63.8468 16.8174 62.2869 18.5194C61.5111 11.1362 57.7272 6.26042 57.5374 6.02635L55.7515 8.91454C55.7934 8.96611 59.7447 14.076 59.6973 21.2727C58.4081 22.6097 57.1188 23.903 55.8296 25.1567C54.3283 17.3213 49.4143 12.2868 49.1547 12.0289L47.5949 15.171C47.6507 15.2265 52.5257 20.2134 53.4131 27.4538C51.535 29.1994 49.6682 30.8538 47.8181 32.4209C46.78 23.9507 41.8939 18.4123 41.6483 18.1425L39.9851 21.1735C40.0382 21.233 44.8295 26.7595 45.2369 34.5632C43.3365 36.1065 41.4641 37.5546 39.6307 38.9114C38.7462 30.7943 34.0218 25.4701 33.7874 25.2123L32.1299 28.2512C32.1801 28.3068 36.7119 33.4801 37.0021 40.8197C34.9985 42.2439 33.0563 43.5571 31.1923 44.7632C29.984 37.5625 25.974 32.9128 25.7647 32.6748L24.0765 35.678C24.1211 35.7296 27.8018 40.046 28.6362 46.3858C17.9039 53.039 10.3528 55.9153 10.1881 55.9748L0 59.7517L9.82816 65.1115C10.0988 65.2583 37.2002 80.2865 72.3857 120.452L76.6189 112.957C72.7261 108.514 68.9534 104.408 65.2894 100.559C68.546 93.3905 74.3642 78.0172 74.3642 59.5454C74.3642 42.9144 70.1254 30.8101 67.5219 24.9266C71.8471 20.0905 76.1194 14.7663 80.2019 8.87487L75.3911 2.13441ZM69.9998 42.5296C67.5107 43.9816 62.1055 48.5321 62.1055 60.7713C62.1055 70.634 67.3126 75.3868 69.838 77.1126C67.96 86.3961 65.0578 93.8824 63.0989 98.2584C44.5002 79.0328 29.3366 67.4126 20.5409 61.3822C30.7039 56.2446 48.3009 45.628 65.3592 27.2911C66.7656 30.5364 68.652 35.7494 69.9998 42.5296Z" fill="black"/>
<path d="M84.9959 54.221C83.1319 54.221 81.6138 56.3752 81.6138 59.0293C81.6138 61.6834 83.1291 63.8376 84.9959 63.8376C86.86 63.8376 88.378 61.6834 88.378 59.0293C88.378 56.3752 86.86 54.221 84.9959 54.221Z" fill="black"/>
<path d="M98.5212 54.2209C96.6572 54.2209 95.1392 56.3751 95.1392 59.0292C95.1392 61.6833 96.6544 63.8375 98.5212 63.8375C100.385 63.8375 101.903 61.6833 101.903 59.0292C101.903 56.3751 100.385 54.2209 98.5212 54.2209Z" fill="black"/>
<path d="M112.044 54.2208C110.18 54.2208 108.662 56.375 108.662 59.029C108.662 61.6831 110.177 63.8373 112.044 63.8373C113.911 63.8373 115.426 61.6831 115.426 59.029C115.426 56.375 113.911 54.2208 112.044 54.2208Z" fill="black"/>
<path d="M125.569 54.2209C123.705 54.2209 122.187 56.3751 122.187 59.0292C122.187 61.6832 123.702 63.8375 125.569 63.8375C127.433 63.8375 128.951 61.6832 128.951 59.0292C128.951 56.3751 127.433 54.2209 125.569 54.2209Z" fill="black"/>
<path d="M139.095 54.2208C137.231 54.2208 135.713 56.375 135.713 59.029C135.713 61.6831 137.228 63.8373 139.095 63.8373C140.962 63.8373 142.477 61.6831 142.477 59.029C142.477 56.375 140.959 54.2208 139.095 54.2208Z" fill="black"/>
<path d="M152.618 54.2206C150.754 54.2206 149.236 56.3748 149.236 59.0289C149.236 61.683 150.751 63.8372 152.618 63.8372C154.482 63.8372 156 61.683 156 59.0289C156 56.3748 154.485 54.2206 152.618 54.2206Z" fill="black"/>
<path d="M166.143 54.2208C164.279 54.2208 162.761 56.375 162.761 59.029C162.761 61.6831 164.276 63.8373 166.143 63.8373C168.01 63.8373 169.525 61.6831 169.525 59.029C169.525 56.375 168.007 54.2208 166.143 54.2208Z" fill="black"/>
</svg>
