<svg width="177" height="232" viewBox="0 0 177 232" fill="none" xmlns="http://www.w3.org/2000/svg">
<path d="M17.7426 58.015C17.2751 58.0426 16.8371 58.2638 16.5251 58.6302L8.34733 68.2092C8.34615 68.2104 8.34497 68.2117 8.3438 68.2129C3.31187 74.1286 3.78113 83.2747 9.41992 88.5761L38.8405 116.22C39.0133 116.383 39.2149 116.508 39.4337 116.588C39.6526 116.669 39.8844 116.703 40.1159 116.69C40.3475 116.676 40.5743 116.615 40.7833 116.51C40.9924 116.405 41.1796 116.257 41.3342 116.076C41.4889 115.894 41.6081 115.683 41.6848 115.453C41.7616 115.224 41.7946 114.98 41.7817 114.737C41.7689 114.495 41.7106 114.257 41.6102 114.037C41.5097 113.818 41.3691 113.622 41.1963 113.459L11.7757 85.815C7.56135 81.8529 7.21874 75.1042 10.9789 70.681V70.6773L19.1532 61.1019C19.4661 60.7362 19.6276 60.2551 19.6024 59.7644C19.5772 59.2738 19.3672 58.8137 19.0187 58.4855C18.8459 58.3229 18.6442 58.1977 18.4252 58.117C18.2063 58.0362 17.9744 58.0015 17.7426 58.015Z" fill="black"/>
<path d="M135.208 68.1612C134.897 68.3066 134.632 68.5436 134.446 68.8435C134.26 69.1434 134.16 69.4934 134.16 69.8512V80.3929C134.161 80.6891 134.229 80.9807 134.36 81.2433L156.768 126.75C156.9 127.017 157.091 127.246 157.325 127.418C157.559 127.59 157.83 127.7 158.113 127.738C158.397 127.776 158.685 127.741 158.953 127.636C159.221 127.532 159.461 127.361 159.652 127.137L168.233 117.077C173.283 111.164 172.815 102.028 167.178 96.7283L137.105 68.4725C136.851 68.2341 136.537 68.078 136.201 68.0227C135.864 67.9675 135.519 68.0156 135.208 68.1612ZM137.692 73.9948L164.822 99.4858C169.039 103.45 169.385 110.176 165.605 114.602H165.601L158.731 122.661L137.691 79.9441L137.692 73.9948Z" fill="black"/>
<path d="M90.7187 3.75755C88.9386 3.89855 87.1583 4.40919 85.4761 5.32088L74.508 11.2666C74.2535 11.4045 74.0349 11.6052 73.8708 11.8515C73.7067 12.0978 73.6022 12.3822 73.5662 12.6803C73.5303 12.9784 73.5639 13.2811 73.6643 13.5625C73.7646 13.8439 73.9287 14.0955 74.1424 14.2956L77.1293 17.093C77.4529 17.396 77.8716 17.5635 78.3054 17.5634H104.087C104.39 17.5631 104.688 17.481 104.953 17.3248C105.217 17.1687 105.438 16.9438 105.596 16.6718C105.753 16.3999 105.841 16.09 105.851 15.7721C105.861 15.4542 105.793 15.1388 105.653 14.8565L103.994 11.5055C101.387 6.22555 96.0587 3.33447 90.7187 3.75755ZM91.0049 7.44154C94.9741 7.1177 98.9099 9.26273 100.859 13.21C100.859 13.2112 100.859 13.2124 100.859 13.2137L101.18 13.8578H78.978L78.4089 13.3258L87.0971 8.61413C88.3551 7.93237 89.6819 7.54946 91.0049 7.44154Z" fill="black"/>
<path d="M71.8588 167.719C71.5556 167.72 71.2576 167.802 70.9934 167.958C70.7293 168.114 70.5079 168.339 70.3506 168.611C70.1933 168.883 70.1053 169.193 70.0952 169.511C70.0851 169.828 70.1532 170.144 70.2929 170.426L71.9519 173.781C75.4285 180.837 83.7448 183.606 90.47 179.962V179.965L101.842 173.813C102.096 173.676 102.314 173.475 102.478 173.23C102.642 172.984 102.747 172.7 102.783 172.402C102.819 172.105 102.786 171.802 102.686 171.521C102.587 171.24 102.423 170.988 102.211 170.788L99.4583 168.193C99.1343 167.888 98.7142 167.719 98.2787 167.719L71.8588 167.719ZM74.7664 171.425H97.5993L97.9476 171.751L88.8489 176.669V176.672C83.8146 179.401 77.6867 177.357 75.0871 172.076V172.073L74.7664 171.425Z" fill="black"/>
<path d="M65.8508 7.19501C62.3351 7.39461 58.892 8.99706 56.3658 11.9538L54.2102 14.4761C53.9835 14.7426 53.835 15.0722 53.7827 15.4252C53.7304 15.7782 53.7764 16.1395 53.9153 16.4657C54.0541 16.7918 54.2799 17.0689 54.5653 17.2636C54.8508 17.4583 55.1838 17.5623 55.5243 17.563H78.3054C78.6624 17.5621 79.0108 17.4478 79.3047 17.235C79.5985 17.0222 79.824 16.7209 79.9513 16.371C80.0787 16.021 80.102 15.6388 80.0181 15.2747C79.9342 14.9106 79.7472 14.5817 79.4816 14.3314L75.7738 10.8464V10.8501C72.9553 8.20025 69.3674 6.99536 65.8508 7.19501ZM66.0405 10.8717C68.6473 10.7241 71.3097 11.6254 73.4181 13.6076L73.6837 13.8573H59.7218C61.524 12.0958 63.7256 11.0029 66.0405 10.8717Z" fill="black"/>
<path d="M98.2787 167.719C97.9214 167.719 97.5725 167.833 97.2782 168.046C96.9838 168.258 96.7578 168.559 96.63 168.91C96.5022 169.26 96.4786 169.642 96.5624 170.007C96.6462 170.371 96.8333 170.7 97.0992 170.951L100.824 174.454C106.463 179.755 115.184 179.243 120.236 173.328L122.391 170.81C122.619 170.543 122.769 170.213 122.821 169.859C122.874 169.505 122.828 169.143 122.689 168.816C122.549 168.489 122.323 168.211 122.036 168.016C121.749 167.822 121.415 167.719 121.074 167.719H98.2787ZM102.894 171.425H116.883C113.05 175.177 107.164 175.435 103.183 171.693H103.18L102.894 171.425Z" fill="black"/>
<path d="M39.2101 30.4063L21.5508 39.9853C14.8239 43.6309 12.1573 52.3559 15.6356 59.4004L38.4513 105.74C38.633 106.109 38.9275 106.403 39.2877 106.575C39.6479 106.747 40.0528 106.788 40.4375 106.69C40.8222 106.592 41.1643 106.361 41.4089 106.034C41.6536 105.708 41.7866 105.304 41.7865 104.889V32.0528C41.7866 31.7349 41.7086 31.4224 41.5602 31.1452C41.4118 30.868 41.1979 30.6355 40.9392 30.4702C40.6804 30.3048 40.3854 30.212 40.0826 30.2009C39.7798 30.1897 39.4793 30.2604 39.2101 30.4063ZM38.2547 35.0963V97.2642L18.7743 57.6995C18.7731 57.6983 18.7719 57.697 18.7708 57.6958C16.1743 52.4374 18.1376 46.0066 23.1718 43.2784L38.2547 35.0963Z" fill="black"/>
<path d="M135.512 78.5945C135.127 78.6919 134.784 78.9222 134.539 79.2483C134.294 79.5745 134.16 79.9777 134.16 80.3931V153.247C134.16 153.565 134.238 153.878 134.386 154.155C134.534 154.432 134.748 154.665 135.007 154.83C135.266 154.996 135.561 155.088 135.864 155.099C136.166 155.111 136.467 155.04 136.736 154.894L154.413 145.315C161.141 141.669 163.785 132.943 160.311 125.885C160.311 125.884 160.311 125.883 160.311 125.882L137.495 79.5426C137.313 79.1746 137.019 78.8812 136.659 78.7093C136.3 78.5374 135.896 78.497 135.512 78.5945ZM137.692 88.018L157.175 127.583C159.776 132.865 157.828 139.294 152.795 142.022L137.692 150.204V88.018Z" fill="black"/>
<path d="M51.9955 13.8613C44.4277 13.8613 38.251 20.3366 38.251 28.2788V157.015C38.251 164.955 44.4259 171.433 51.9955 171.433H123.957C131.525 171.433 137.698 164.957 137.698 157.015V28.2788C137.698 20.3369 131.526 13.8613 123.957 13.8613H51.9955ZM51.9955 17.567H123.957C129.618 17.567 134.166 22.3391 134.166 28.2788V157.015C134.166 162.954 129.616 167.727 123.957 167.727H51.9955C46.3348 167.727 41.7828 162.953 41.7828 157.015V28.2788C41.7828 22.3395 46.3366 17.567 51.9955 17.567Z" fill="black"/>
<path d="M55.7933 35.4438C55.3249 35.4438 54.8757 35.6391 54.5446 35.9865C54.2134 36.334 54.0273 36.8053 54.0273 37.2967C54.0273 37.7881 54.2134 38.2594 54.5446 38.6068C54.8757 38.9543 55.3249 39.1495 55.7933 39.1495H120.157C120.625 39.1495 121.074 38.9543 121.405 38.6068C121.736 38.2594 121.922 37.7881 121.922 37.2967C121.922 36.8053 121.736 36.334 121.405 35.9865C121.074 35.6391 120.625 35.4438 120.157 35.4438H55.7933Z" fill="black"/>
<path d="M55.7933 146.148C55.3249 146.148 54.8757 146.343 54.5446 146.691C54.2134 147.038 54.0273 147.509 54.0273 148.001C54.0273 148.492 54.2134 148.963 54.5446 149.311C54.8757 149.658 55.3249 149.854 55.7933 149.854H120.157C120.625 149.854 121.074 149.658 121.405 149.311C121.736 148.963 121.922 148.492 121.922 148.001C121.922 147.509 121.736 147.038 121.405 146.691C121.074 146.343 120.625 146.148 120.157 146.148H55.7933Z" fill="black"/>
<path d="M71.8734 65.4136C66.6487 65.4136 62.354 69.8906 62.354 75.3762V109.904C62.354 112.321 63.1914 114.539 64.5511 116.251C64.5521 116.252 64.5528 116.253 64.5546 116.255C66.2918 118.477 68.9452 119.87 71.8735 119.87H104.74C107.675 119.87 110.319 118.45 112.052 116.237C113.431 114.52 114.239 112.294 114.239 109.904V75.3762C114.239 69.8943 109.963 65.4136 104.74 65.4136H71.8734ZM71.8734 69.1193H104.74C108.053 69.1193 110.707 71.8978 110.707 75.3762V109.904C110.707 111.428 110.198 112.805 109.348 113.859C109.342 113.866 109.336 113.873 109.33 113.881C108.241 115.275 106.6 116.164 104.74 116.164H71.8734C70.0037 116.164 68.3675 115.291 67.2827 113.902C67.2792 113.897 67.2757 113.892 67.2721 113.887C66.4026 112.796 65.8856 111.44 65.8856 109.903V75.3758C65.8856 71.9048 68.5582 69.1193 71.8734 69.1193Z" fill="black"/>
<path d="M100.38 101.117C98.6377 101.117 96.8981 101.93 95.7823 103.556L91.9848 109.089L86.5974 116.931C86.4076 117.208 86.2943 117.534 86.2701 117.874C86.2458 118.215 86.3114 118.555 86.4598 118.859C86.6082 119.162 86.8335 119.417 87.1109 119.594C87.3883 119.772 87.7071 119.866 88.0322 119.866H104.74C107.679 119.866 110.329 118.448 112.062 116.229C112.309 115.913 112.449 115.52 112.461 115.112C112.472 114.703 112.355 114.302 112.127 113.971L104.981 103.556C103.865 101.93 102.122 101.117 100.38 101.117ZM100.38 104.754C101.026 104.754 101.673 105.076 102.115 105.72L108.299 114.734C107.296 115.558 106.122 116.16 104.74 116.16H91.4813L94.851 111.253L98.6484 105.72C99.0901 105.076 99.7337 104.754 100.38 104.754Z" fill="black"/>
<path d="M81.3652 93.7418C79.626 93.7418 77.8859 94.5519 76.771 96.1736L64.482 113.996C64.2529 114.329 64.1354 114.731 64.1479 115.141C64.1604 115.551 64.3022 115.945 64.551 116.262C66.2932 118.478 68.9471 119.863 71.863 119.863H88.0392H98.8279C99.2963 119.863 99.7454 119.667 100.077 119.32C100.408 118.972 100.594 118.501 100.594 118.01C100.594 117.518 100.408 117.047 100.077 116.7C99.7454 116.352 99.2963 116.157 98.8279 116.157H88.0392H71.863C70.4924 116.157 69.3199 115.564 68.3174 114.756L79.6338 98.3449C79.6338 98.3437 79.6338 98.3425 79.6338 98.3412C80.512 97.0638 82.215 97.0638 83.0932 98.3412L91.9953 111.257C92.2696 111.654 92.683 111.921 93.1446 111.999C93.6063 112.077 94.0786 111.96 94.458 111.673C94.646 111.53 94.8053 111.35 94.927 111.143C95.0487 110.936 95.1303 110.706 95.1671 110.465C95.204 110.225 95.1953 109.98 95.1417 109.743C95.0881 109.506 94.9905 109.283 94.8546 109.086L85.956 96.1736C84.8411 94.5518 83.1043 93.7418 81.3652 93.7418Z" fill="black"/>
<path d="M93.489 75.7925C89.5185 75.7925 86.2632 79.208 86.2632 83.3739C86.2632 87.5297 89.5185 90.9373 93.489 90.9373C97.4499 90.9373 100.698 87.5297 100.698 83.3739C100.698 79.208 97.4499 75.7925 93.489 75.7925ZM93.489 79.4982C95.5394 79.4982 97.1657 81.2031 97.1657 83.3739C97.1657 85.5252 95.5394 87.2316 93.489 87.2316C91.42 87.2316 89.795 85.5252 89.795 83.3739C89.795 81.2031 91.42 79.4982 93.489 79.4982Z" fill="black"/>
</svg>
